<svg width="60" height="60" viewBox="0 0 60 60" fill="none" xmlns="http://www.w3.org/2000/svg">
<path d="M30 0C13.4583 0 0 13.457 0 30C0 46.543 13.4583 60 30 60C46.5417 60 60 46.543 60 30C60 13.457 46.5417 0 30 0ZM20.8696 43.0435H15.6522V23.4783H20.8696V43.0435ZM18.2609 19.5652C16.8196 19.5652 15.6522 18.3978 15.6522 16.9565C15.6522 15.5152 16.8196 14.3478 18.2609 14.3478C19.7022 14.3478 20.8696 15.5152 20.8696 16.9565C20.8696 18.3978 19.7022 19.5652 18.2609 19.5652ZM45.6522 43.0435H40.4348V36.5217V33.2609C40.4348 30.75 38.3804 28.6957 35.8696 28.6957C33.3587 28.6957 31.3043 30.75 31.3043 33.2609V43.0435H26.087V23.4783H31.3043V25.847C32.8278 24.3835 34.8939 23.4783 37.1739 23.4783C41.8565 23.4783 45.6522 27.2739 45.6522 31.9565V43.0435Z" fill="#C69AD0"/>
</svg>
